<?xml version="1.0" encoding="UTF-8"?>
<svg width="400" height="200" viewBox="0 0 400 200" xmlns="http://www.w3.org/2000/svg">
    <!-- Definisi Logo Batman -->
    <g id="batman-logo" transform="translate(100, 20)">
        <!-- Logo Batman -->
        <path d="M 50 10 Q 30 10 10 50 Q 20 40 40 45 Q 20 50 10 90 Q 30 80 50 85 Q 40 100 50 120 Q 60 100 50 85 Q 70 90 90 120 Q 90 100 80 85 Q 100 80 120 90 Q 110 50 90 45 Q 110 40 120 50 Q 100 10 80 10 Q 70 5 60 10 Q 50 5 50 10 Z" fill="black" stroke="none"/>
        
        <!-- Mata Batman -->
        <ellipse id="left-eye" cx="45" cy="40" rx="6" ry="3" fill="white"/>
        <ellipse id="right-eye" cx="75" cy="40" rx="6" ry="3" fill="white"/>
    </g>

    <!-- Animasi -->
    <style>
        @keyframes eye-blink {
            0%, 100% { opacity: 1; }
            50% { opacity: 0; }
        }

        @keyframes eye-glow {
            0%, 100% { fill: white; }
            50% { fill: yellow; }
        }

        #left-eye, #right-eye {
            animation: eye-blink 2s infinite, eye-glow 2s infinite;
        }
    </style>
</svg>
